<svg width="80" height="80" viewBox="0 0 80 80" fill="none" xmlns="http://www.w3.org/2000/svg">
<path d="M76.683 28.9464V23.4667L40 0L3.31738 23.4667V28.9464V35.4549V74.7511C3.31738 77.6378 5.67927 79.9997 8.56605 79.9997H71.434C74.3211 79.9997 76.683 77.6378 76.683 74.7511V35.4551V28.9464Z" fill="#7D868C"/>
<path d="M76.4011 26.6457L40 3.35937L3.59922 26.6457C3.41731 26.1151 3.31738 25.5475 3.31738 24.9573V23.4667L40 0L76.683 23.4667V24.9573C76.683 25.5475 76.583 26.1151 76.4011 26.6457Z" fill="#005CB9"/>
<path d="M63.7924 14.4264H16.2075V71.4253H63.7924V14.4264Z" fill="white"/>
<path d="M56.0605 25.7054H23.9395C23.2439 25.7054 22.6797 25.1415 22.6797 24.4457C22.6797 23.75 23.2436 23.1859 23.9395 23.1859H56.0605C56.7561 23.1859 57.32 23.7498 57.32 24.4457C57.32 25.1415 56.7558 25.7054 56.0605 25.7054Z" fill="#1E252B"/>
<path d="M56.0607 33.6837H23.9396C23.4759 33.6837 23.0996 33.3077 23.0996 32.8439C23.0996 32.3802 23.4756 32.0042 23.9396 32.0042H56.0607C56.5241 32.0042 56.9004 32.3802 56.9004 32.8439C56.9002 33.3077 56.5241 33.6837 56.0607 33.6837Z" fill="#333E48"/>
<path d="M56.0607 38.3026H23.9396C23.4759 38.3026 23.0996 37.9266 23.0996 37.4628C23.0996 36.9991 23.4756 36.6231 23.9396 36.6231H56.0607C56.5241 36.6231 56.9004 36.9991 56.9004 37.4628C56.9002 37.9266 56.5241 38.3026 56.0607 38.3026Z" fill="#333E48"/>
<path d="M54.0057 42.9215H25.9941C25.5301 42.9215 25.1543 42.5455 25.1543 42.0817C25.1543 41.618 25.5301 41.242 25.9941 41.242H54.006C54.47 41.242 54.846 41.618 54.846 42.0817C54.8458 42.5455 54.47 42.9215 54.0057 42.9215Z" fill="#333E48"/>
<path d="M56.0607 47.5404H23.9396C23.4759 47.5404 23.0996 47.1644 23.0996 46.7006C23.0996 46.2369 23.4756 45.8609 23.9396 45.8609H56.0607C56.5241 45.8609 56.9004 46.2369 56.9004 46.7006C56.9002 47.1644 56.5241 47.5404 56.0607 47.5404Z" fill="#333E48"/>
<path d="M53.57 52.1593H26.4301C25.9664 52.1593 25.5903 51.7833 25.5903 51.3195C25.5903 50.8558 25.9664 50.4798 26.4301 50.4798H53.5702C54.034 50.4798 54.41 50.8558 54.41 51.3195C54.41 51.7833 54.0337 52.1593 53.57 52.1593Z" fill="#333E48"/>
<path d="M46.6724 56.7785H33.3271C32.8633 56.7785 32.4873 56.4024 32.4873 55.9387C32.4873 55.475 32.8633 55.0987 33.3271 55.0987H46.6724C47.1364 55.0987 47.5125 55.4747 47.5125 55.9387C47.5125 56.4022 47.1362 56.7785 46.6724 56.7785Z" fill="#333E48"/>
<path d="M40 60.4124L3.31738 36.9458V74.7513C3.31738 77.6381 5.67927 80 8.56605 80H71.4343C74.3213 80 76.6832 77.6381 76.6832 74.7513V36.9455L40 60.4124Z" fill="#C3C6C8"/>
<path d="M40 49.7938L3.31738 73.2607V74.7513C3.31738 77.6381 5.67927 80 8.56605 80H71.4343C74.3213 80 76.6832 77.6381 76.6832 74.7513V73.2607L40 49.7938Z" fill="#E8E8E8"/>
</svg>
