<svg width="240" height="240" viewBox="0 0 240 240" fill="none" xmlns="http://www.w3.org/2000/svg">
<g clip-path="url(#clip0_26_43)">
<path d="M120 240C186.274 240 240 186.274 240 120C240 53.7258 186.274 0 120 0C53.7258 0 0 53.7258 0 120C0 186.274 53.7258 240 120 240Z" fill="#00A7DC"/>
<path d="M48.9422 164.574L124.283 239.916C187.117 237.71 237.655 187.204 239.912 124.383L190.368 74.8406L48.9422 164.574Z" fill="#273B7A"/>
<path d="M185.892 166.667H54.1073C49.9973 166.667 46.6664 163.335 46.6664 159.226V80.775C46.6664 76.665 49.9983 73.3336 54.1073 73.3336H185.892C190.002 73.3336 193.333 76.6655 193.333 80.775V159.226C193.333 163.335 190.002 166.667 185.892 166.667Z" fill="#FCFCD4"/>
<path d="M185.892 73.3331H120V166.666H185.892C190.002 166.666 193.333 163.335 193.333 159.225V80.7741C193.333 76.665 190.002 73.3331 185.892 73.3331Z" fill="#FCFCD4"/>
<path d="M103.838 153.333H56.1619C54.6 153.333 53.3334 152.067 53.3334 150.505V89.4952C53.3334 87.9333 54.5995 86.6667 56.1619 86.6667H103.838C105.4 86.6667 106.667 87.9328 106.667 89.4952V150.505C106.667 152.067 105.4 153.333 103.838 153.333Z" fill="#FFEDB5"/>
<path d="M80.0002 120.808C86.2483 120.808 91.3135 115.743 91.3135 109.495C91.3135 103.247 86.2483 98.1815 80.0002 98.1815C73.752 98.1815 68.6869 103.247 68.6869 109.495C68.6869 115.743 73.752 120.808 80.0002 120.808Z" fill="#366695"/>
<path d="M60.6061 141.818C60.6061 131.107 69.2887 122.424 80.0001 122.424C90.7115 122.424 99.3942 131.107 99.3942 141.818H60.6061Z" fill="#366695"/>
<path d="M179.798 105.051H126.465V108.283H179.798V105.051Z" fill="#263A7A"/>
<path d="M179.798 118.384H126.465V121.616H179.798V118.384Z" fill="#263A7A"/>
<path d="M179.798 131.717H126.465V134.95H179.798V131.717Z" fill="#263A7A"/>
</g>
<defs>
<clipPath id="clip0_26_43">
<rect width="240" height="240" fill="white"/>
</clipPath>
</defs>
</svg>
