<svg width="100" height="100" viewBox="0 0 100 100" fill="none" xmlns="http://www.w3.org/2000/svg">
<path d="M49.9998 0C77.6156 0 100 22.3875 100 50.0002C100 77.6129 77.6156 100 49.9998 100C22.3841 100 0 77.6125 0 50.0002C0 22.3878 22.3844 0 49.9998 0Z" fill="#0E76A8"/>
<path d="M28.1751 68.6999H37.5377V37.4936H28.1751V68.6999ZM64.6502 36.4127C60.1064 36.4127 56.0408 38.072 53.1567 41.7347V37.391H43.7598V68.7003H53.1567V51.769C53.1567 48.1908 56.4349 44.7001 60.541 44.7001C64.6472 44.7001 65.6598 48.1908 65.6598 51.6815V68.6972H75.0224V50.9847C75.022 38.6813 69.1972 36.4127 64.6502 36.4127ZM32.8126 34.375C35.4002 34.375 37.5003 32.2749 37.5003 29.6874C37.5003 27.0998 35.4002 25.0001 32.8126 25.0001C30.2251 25.0001 28.125 27.1002 28.125 29.6877C28.125 32.2753 30.2251 34.375 32.8126 34.375Z" fill="white"/>
</svg>
