<svg width="48" height="80" viewBox="0 0 48 80" fill="none" xmlns="http://www.w3.org/2000/svg">
<path d="M2.11279 74.2767C2.11279 76.5575 3.78498 78.4064 5.84793 78.4064H42.1528C44.2156 78.4064 45.8879 76.5575 45.8879 74.2767V62.2178H2.11279V74.2767Z" fill="#C7EBFF"/>
<path d="M45.8878 5.72335C45.8878 3.44255 44.2154 1.59363 42.1526 1.59363H5.84793C3.78514 1.59363 2.11279 3.44255 2.11279 5.72335V10.8441H45.8878V5.72335Z" fill="#C7EBFF"/>
<path d="M45.8878 10.8441H2.11279V62.2178H45.8878V10.8441Z" fill="#50A5DC"/>
<path d="M24.0002 73.1203C25.5968 73.1203 26.8911 71.826 26.8911 70.2295C26.8911 68.6329 25.5968 67.3386 24.0002 67.3386C22.4036 67.3386 21.1094 68.6329 21.1094 70.2295C21.1094 71.826 22.4036 73.1203 24.0002 73.1203Z" fill="#50A5DC"/>
<path d="M0.519043 74.2767C0.519043 77.4325 2.90948 80 5.84781 80H42.1527C45.091 80 47.4814 77.4325 47.4814 74.2767V5.72335C47.4814 2.56749 45.091 0 42.1527 0H5.84781C2.90948 0 0.519043 2.56749 0.519043 5.72335C0.519043 5.72335 0.519043 74.2767 0.519043 74.2767ZM3.70629 12.4378H44.294V60.6242H3.70629V12.4378ZM3.70629 5.72335C3.70629 4.32494 4.66693 3.18725 5.84781 3.18725H42.1527C43.3334 3.18725 44.2942 4.32494 44.2942 5.72335V9.25052H3.70629V5.72335ZM44.294 74.2767C44.294 75.6751 43.3334 76.8128 42.1525 76.8128H5.84781C4.66693 76.8128 3.70629 75.6751 3.70629 74.2767V63.8115H44.294V74.2767Z" fill="black"/>
<path d="M24.0001 74.7139C26.4729 74.7139 28.4846 72.7023 28.4846 70.2295C28.4846 67.7567 26.4729 65.745 24.0001 65.745C21.5274 65.745 19.5156 67.7567 19.5156 70.2295C19.5156 72.7023 21.5274 74.7139 24.0001 74.7139ZM24.0001 68.9324C24.7153 68.9324 25.2973 69.5143 25.2973 70.2296C25.2973 70.945 24.7155 71.5269 24.0001 71.5269C23.2847 71.5269 22.7029 70.945 22.7029 70.2296C22.7029 69.5143 23.2849 68.9324 24.0001 68.9324Z" fill="black"/>
<path d="M25.4869 4.7906H22.5135C21.6334 4.7906 20.9199 5.50422 20.9199 6.38422C20.9199 7.26422 21.6334 7.97785 22.5135 7.97785H25.4869C26.3669 7.97785 27.0806 7.26422 27.0806 6.38422C27.0806 5.50422 26.3671 4.7906 25.4869 4.7906Z" fill="black"/>
<path d="M8.30749 26.4303C7.42733 26.4303 6.71387 27.1439 6.71387 28.0239V56.106C6.71387 56.986 7.42733 57.6996 8.30749 57.6996C9.18765 57.6996 9.90112 56.986 9.90112 56.106V28.0239C9.90112 27.1437 9.18765 26.4303 8.30749 26.4303Z" fill="black"/>
<path d="M8.30749 15.6929C7.42733 15.6929 6.71387 16.4065 6.71387 17.2865V21.5815C6.71387 22.4615 7.42733 23.1751 8.30749 23.1751C9.18765 23.1751 9.90112 22.4615 9.90112 21.5815V17.2865C9.90112 16.4064 9.18765 15.6929 8.30749 15.6929Z" fill="black"/>
</svg>
