<svg width="80" height="80" viewBox="0 0 80 80" fill="none" xmlns="http://www.w3.org/2000/svg">
<path d="M40.0004 1.59363C26.5229 1.59363 15.5972 12.5194 15.5972 25.9968C15.5972 39.4743 40.0004 78.4064 40.0004 78.4064C40.0004 78.4064 64.4035 39.4743 64.4035 25.9968C64.4035 12.5194 53.4778 1.59363 40.0004 1.59363ZM40.0004 38.1165C33.3068 38.1165 27.8807 32.6904 27.8807 25.9968C27.8807 19.3033 33.3068 13.8771 40.0004 13.8771C46.6939 13.8771 52.12 19.3033 52.12 25.9968C52.12 32.6904 46.6939 38.1165 40.0004 38.1165Z" fill="#50A5DC"/>
<path d="M40.0002 80C39.4515 80 38.9413 79.7178 38.6499 79.2528C37.6436 77.6472 14.0034 39.774 14.0034 25.9968C14.0034 11.6622 25.6656 0 40.0002 0C54.3349 0 65.997 11.6622 65.997 25.9968C65.997 39.774 42.3569 77.6472 41.3505 79.2528C41.0592 79.7178 40.5489 80 40.0002 80ZM40.0002 3.18725C27.423 3.18725 17.1907 13.4196 17.1907 25.9968C17.1907 31.2445 21.3421 41.7885 29.1959 56.4892C33.5094 64.5629 37.8654 71.8585 40.0002 75.3648C42.135 71.8587 46.4909 64.5629 50.8045 56.4892C58.6584 41.7885 62.8098 31.2443 62.8098 25.9968C62.8098 13.4196 52.5774 3.18725 40.0002 3.18725ZM40.0002 39.7101C32.4388 39.7101 26.2869 33.5583 26.2869 25.9968C26.2869 18.4354 32.4388 12.2835 40.0002 12.2835C47.5617 12.2835 53.7135 18.4352 53.7135 25.9968C53.7135 33.5584 47.5617 39.7101 40.0002 39.7101ZM40.0002 15.4708C34.1961 15.4708 29.4742 20.1927 29.4742 25.9968C29.4742 31.801 34.1961 36.5229 40.0002 36.5229C45.8044 36.5229 50.5263 31.801 50.5263 25.9968C50.5263 20.1927 45.8044 15.4708 40.0002 15.4708Z" fill="black"/>
<path d="M21.3466 27.5904C20.4666 27.5904 19.7529 26.877 19.7529 25.9968C19.7529 22.1551 20.8339 18.4159 22.8791 15.1837C24.8683 12.04 27.678 9.50518 31.0042 7.85307C31.7923 7.46136 32.7488 7.78327 33.1403 8.57148C33.5319 9.35969 33.2101 10.3162 32.4219 10.7076C26.5733 13.6126 22.94 19.4711 22.94 25.9967C22.9402 26.877 22.2267 27.5904 21.3466 27.5904Z" fill="black"/>
<path d="M48.2863 10.8746C48.0482 10.8746 47.8063 10.821 47.5787 10.7079C45.2128 9.53274 42.6632 8.93688 40.0004 8.93688C39.1204 8.93688 38.4067 8.22342 38.4067 7.34326C38.4067 6.4631 39.1204 5.74963 40.0004 5.74963C43.1594 5.74963 46.186 6.45736 48.9964 7.85322C49.7846 8.24477 50.1063 9.20111 49.7148 9.98932C49.4364 10.55 48.8724 10.8746 48.2863 10.8746Z" fill="black"/>
</svg>
