<svg width="240" height="240" viewBox="0 0 240 240" fill="none" xmlns="http://www.w3.org/2000/svg">
<g clip-path="url(#clip0_27_58)">
<path d="M0 120.003C0 53.7235 53.7264 0.00144958 119.999 0.00144958C186.274 0.00144958 240 53.7235 240 120.003C240 186.273 186.274 239.999 119.999 239.999C53.7264 239.999 0 186.273 0 120.003Z" fill="#273B7A"/>
<path d="M70.8592 146.458C85.2337 146.458 96.8866 134.805 96.8866 120.431C96.8866 106.056 85.2337 94.4032 70.8592 94.4032C56.4847 94.4032 44.8318 106.056 44.8318 120.431C44.8318 134.805 56.4847 146.458 70.8592 146.458Z" fill="#FCFCD4"/>
<path d="M150.315 100.19C164.689 100.19 176.342 88.5375 176.342 74.163C176.342 59.7885 164.689 48.1356 150.315 48.1356C135.94 48.1356 124.287 59.7885 124.287 74.163C124.287 88.5375 135.94 100.19 150.315 100.19Z" fill="#FCFCD4"/>
<path d="M150.315 191.864C164.689 191.864 176.342 180.212 176.342 165.837C176.342 151.463 164.689 139.81 150.315 139.81C135.94 139.81 124.287 151.463 124.287 165.837C124.287 180.212 135.94 191.864 150.315 191.864Z" fill="#FCFCD4"/>
<path d="M67.3477 113.499L74.3901 125.593L153.844 79.3297L146.801 67.2349L67.3477 113.499Z" fill="#FCFCD4"/>
<path d="M67.3406 125.606L146.794 171.87L153.837 159.775L74.3831 113.511L67.3406 125.606Z" fill="#FCFCD4"/>
</g>
<defs>
<clipPath id="clip0_27_58">
<rect width="240" height="240" fill="white"/>
</clipPath>
</defs>
</svg>
