<svg width="80" height="80" viewBox="0 0 80 80" fill="none" xmlns="http://www.w3.org/2000/svg">
<g clip-path="url(#clip0_31_250)">
<path d="M40 0C17.913 0 0 17.913 0 40C0 62.087 17.913 80 40 80C62.087 80 80 62.087 80 40C80 17.913 62.087 0 40 0ZM43.2174 72.8696C43.0435 72.8696 42.8696 72.8696 42.6087 72.9565V54.087C47.1304 54 51.2174 53.913 54.9565 53.6522C51.6522 63.8261 45.4783 70.6087 43.2174 72.8696ZM36.7826 72.8696C34.4348 70.5217 28.3478 63.7391 25.0435 53.6522C28.6957 53.913 32.8696 54.087 37.3913 54.087V72.9565C37.2174 72.9565 37.0435 72.8696 36.7826 72.8696ZM6.95652 40C6.95652 37.8261 7.21739 35.6522 7.56522 33.5652C9.47826 33.2174 13.1304 32.6957 18.2609 32.1739C17.8261 34.6957 17.5652 37.3043 17.5652 40.087C17.5652 42.8696 17.8261 45.4783 18.1739 47.913C13.1304 47.3913 9.3913 46.8696 7.47826 46.5217C7.21739 44.3478 6.95652 42.1739 6.95652 40ZM22.8696 40C22.8696 37.0435 23.2174 34.2609 23.7391 31.6522C27.7391 31.3913 32.2609 31.1304 37.3913 31.1304V48.8696C32.3478 48.7826 27.7391 48.6087 23.6522 48.2609C23.2174 45.7391 22.8696 42.9565 22.8696 40ZM43.1304 7.13043C45.4783 9.47826 51.4783 16.4348 54.8696 26.3478C51.2174 26.087 47.1304 25.913 42.6087 25.913V7.04348C42.7826 7.04348 42.9565 7.13043 43.1304 7.13043ZM37.3913 7.04348V25.913C32.8696 26 28.7826 26.087 25.1304 26.3478C28.4348 16.4348 34.5217 9.47826 36.7826 7.13043C37.0435 7.13043 37.2174 7.04348 37.3913 7.04348ZM42.6087 48.8696V31.1304C47.6522 31.2174 52.2609 31.3913 56.2609 31.6522C56.7826 34.2609 57.1304 37.0435 57.1304 40C57.1304 42.9565 56.8696 45.7391 56.3478 48.3478C52.3478 48.6087 47.7391 48.7826 42.6087 48.8696ZM61.6522 32.1739C66.7826 32.6957 70.4348 33.2174 72.3478 33.5652C72.7826 35.6522 73.0435 37.8261 73.0435 40C73.0435 42.1739 72.7826 44.3478 72.4348 46.4348C70.5217 46.7826 66.8696 47.3043 61.7391 47.8261C62.1739 45.3043 62.3478 42.6957 62.3478 39.913C62.3478 37.3043 62.087 34.6087 61.6522 32.1739ZM70.7826 28C68.3478 27.6522 64.8696 27.2174 60.4348 26.7826C58.3478 19.3043 54.6957 13.3043 51.6522 9.04348C60.4348 12.3478 67.3913 19.3043 70.7826 28ZM28.3478 9.04348C25.2174 13.2174 21.6522 19.2174 19.5652 26.6957C15.2174 27.0435 11.7391 27.5652 9.21739 27.913C12.6087 19.3043 19.6522 12.3478 28.3478 9.04348ZM9.21739 52C11.6522 52.3478 15.1304 52.7826 19.4783 53.2174C21.5652 60.6957 25.0435 66.6956 28.1739 70.8696C19.4783 67.4783 12.6087 60.6087 9.21739 52ZM51.8261 70.8696C54.9565 66.6956 58.4348 60.7826 60.5217 53.3043C64.8696 52.9565 68.3478 52.4348 70.7826 52.087C67.3913 60.6087 60.5217 67.4783 51.8261 70.8696Z" fill="#00A7DC"/>
</g>
<defs>
<clipPath id="clip0_31_250">
<rect width="80" height="80" fill="white"/>
</clipPath>
</defs>
</svg>
